<?xml version="1.0" standalone="no"?><!DOCTYPE svg PUBLIC "-//W3C//DTD SVG 1.1//EN" "http://www.w3.org/Graphics/SVG/1.1/DTD/svg11.dtd"><svg t="1586748155288" class="icon" viewBox="0 0 1024 1024" version="1.1" xmlns="http://www.w3.org/2000/svg" p-id="1239" xmlns:xlink="http://www.w3.org/1999/xlink" width="200" height="200"><defs><style type="text/css"></style></defs><path d="M180 678c0-19.3 15.7-35 35-35h593c19.3 0 35 15.7 35 35v140c0 19.3-15.7 35-35 35H215c-19.3 0-35-15.7-35-35V678z" fill="#7D3900" p-id="1240"></path><path d="M143 530c0-34.2 27.8-62 62-62h593c34.2 0 62 27.8 62 62s-27.8 62-62 62H205c-34.2 0-62-27.8-62-62z" fill="#FDF5A9" p-id="1241"></path><path d="M874 615c0-18.2-14.8-33-33-33H602c-18.2 0-33 14.8-33 33s14.8 33 33 33h239c18.2 0 33-14.8 33-33zM569 615c0-18.2-14.8-33-33-33h-68c-18.2 0-33 14.8-33 33s14.8 33 33 33h68c18.2 0 33-14.8 33-33zM432 615c0-18.2-14.8-33-33-33H188c-18.2 0-33 14.8-33 33s14.8 33 33 33h211c18.2 0 33-14.8 33-33z" fill="#FF8F11" p-id="1242"></path><path d="M177 607.5c0-5.2 4.3-9.5 9.5-9.5h121c5.2 0 9.5 4.3 9.5 9.5s-4.3 9.5-9.5 9.5h-121c-5.2 0-9.5-4.3-9.5-9.5zM327 608c0-5.5 4.5-10 10-10h14c5.5 0 10 4.5 10 10s-4.5 10-10 10h-14c-5.5 0-10-4.5-10-10z" fill="#BC5601" p-id="1243"></path><path d="M222.8 405l609.1 0.3c19.7 0 37.2 8 47.5 20.1l11.5 9.9c32.6 25.7 42.1 61.7 20.3 85.9-21.8 24.1-67.6 28.4-108.6 12l-14-6.8-5.3 4c-7.9 4.8-17.5 7.7-27.8 7.7-13.7 0-26.1-5-35.1-13.2-1.3-1.4-2.6-2.8-3.9-4.3l-3.9 4.3c-9 8.1-21.4 13.1-35.1 13.1-13.7 0-26.1-5-35.1-13.2-1.3-1.4-2.6-2.8-3.9-4.3l-3.9 4.3c-9 8.1-21.4 13.1-35.1 13.1-13.7 0-26.1-5-35.1-13.2-1.3-1.4-2.6-2.8-3.9-4.3l-3.9 4.3c-9 8.1-21.4 13.1-35.1 13.1-13.7 0-26.1-5-35.1-13.2l-4-4.4-4 4.4c-9 8.1-21.4 13.1-35.1 13.1s-26.1-5-35.1-13.2c-1.3-1.4-2.6-2.8-3.9-4.3l-3.9 4.3c-9 8.1-21.4 13.1-35.1 13.1s-26.1-5-35.1-13.2c-1.3-1.4-2.6-2.8-3.9-4.3l-3.9 4.3c-9 8.1-21.4 13.1-35.1 13.1s-26.1-5-35.1-13.2c-0.6-0.6-1.2-1.3-1.8-1.9l-2.9 1.9-8.9 4.3-1.6 1.2c-5.3 3.2-11.3 5.6-17.7 6.8l-1.6 0.1-5.1 1.7c-35.8 9-72.1 2.9-90.8-17.8-24.9-27.6-9-70.7 35.5-96.2 11.1-6.4 23-11.1 34.9-14.1l30.6-5.3z" fill="#8DC73F" p-id="1244"></path><path d="M501.5 158c198 0 358.5 106.1 358.5 236.9 0 8.2-0.6 16.3-1.9 24.2L854 437H149l-4.1-17.9c-1.2-8-1.9-16-1.9-24.2C143 264.1 303.5 158 501.5 158z" fill="#EFBC83" p-id="1245"></path><path d="M298 239c0-20.4 16.3-37 36.5-37s36.5 16.6 36.5 37-16.3 37-36.5 37-36.5-16.6-36.5-37zM237 317.5c0-20.2 16.3-36.5 36.5-36.5s36.5 16.3 36.5 36.5-16.3 36.5-36.5 36.5-36.5-16.3-36.5-36.5zM349 317.5c0-20.2 16.3-36.5 36.5-36.5s36.5 16.3 36.5 36.5-16.3 36.5-36.5 36.5-36.5-16.3-36.5-36.5z" fill="#6D3400" p-id="1246"></path><path d="M171.6 642h683.7c11.9 0 21.6 11.5 21.6 25.6 0 7.1-2.4 13.5-6.3 18.1l-1.4 1.1v85.9c0 8.6-5.9 15.5-13.1 15.5-7.3 0-13.1-7-13.1-15.5v-82.8l-1.8-6.9c-1.4-2.5-3.4-4.5-5.8-5.6l-5.1-1.2-5.1 1.2c-2.4 1.2-4.4 3.1-5.8 5.6l-0.5 2v33c0 8.6-5.9 15.5-13.1 15.5-7.3 0-13.1-7-13.1-15.5v-24.7h-559v14.6c0 8.3-5.7 15.1-12.7 15.1-7 0-12.7-6.7-12.7-15.1v-16.3l-0.6-3.4c-1.3-3.7-3.8-6.7-7-8.3l-5.1-1.2-5.1 1.2c-1.6 0.8-3 1.9-4.2 3.3l-2.1 3.7v87.7c0 8.6-5.9 15.5-13.1 15.5-7.3 0-13.1-7-13.1-15.5v-87.5l-2.9-3.1c-1.3-1.9-2.4-4-3.2-6.3l-1.7-10 1.7-10c3.1-9.3 10.8-15.7 19.7-15.7z" fill="#FCBA7F" p-id="1247"></path><path d="M601 582l175.9 94 44.1-94H601z" fill="#FDF5A9" p-id="1248"></path><path d="M469.5 157l3.8 0.1C654 169.3 795 270.2 795 392.9c0 8.2-0.6 16.3-1.8 24.2L789 435H150l-4.1-17.9c-1.2-8-1.9-16-1.9-24.2 0-122.7 141-223.6 321.7-235.7l3.8-0.2z" fill="#FFFDF8" fill-opacity=".388" p-id="1249"></path></svg>